<?xml version="1.0" encoding="utf-8"?>
<!-- Generator: Adobe Illustrator 16.0.0, SVG Export Plug-In . SVG Version: 6.00 Build 0)  -->
<!DOCTYPE svg PUBLIC "-//W3C//DTD SVG 1.1//EN" "http://www.w3.org/Graphics/SVG/1.1/DTD/svg11.dtd">
<svg version="1.1" id="Layer_1" xmlns="http://www.w3.org/2000/svg" xmlns:xlink="http://www.w3.org/1999/xlink" x="0px" y="0px"
	 width="283.465px" height="212.598px" viewBox="0 0 283.465 212.598" enable-background="new 0 0 283.465 212.598"
	 xml:space="preserve">
<g id="Grundform">
	<g id="Außenkontur" xmlns:shaper="http://www.shapertools.com/namespaces/shaper" shaper:fusionaddin="version:1.6.10">
		<path shaper:cutDepth="0.0016" d="M0.188,172.914v31.181c0,4.697,3.808,8.504,8.504,8.504l0,0h266.457
			c4.696,0,8.504-3.807,8.504-8.504l0,0v-31.181h-5.669c-1.565,0-2.835-1.271-2.835-2.835l0,0V85.04c0-1.566,1.27-2.835,2.835-2.835
			l0,0h5.669V36.851c0-4.697-3.808-8.504-8.504-8.504l0,0h-45.354c-1.565,0-2.836-1.269-2.836-2.834V17.86L196.346,0H87.495
			L56.88,17.858v7.653c0,1.565-1.27,2.834-2.835,2.834H8.691c-4.697,0.001-8.504,3.809-8.504,8.506l0,0v45.354h5.67
			c1.565,0,2.834,1.269,2.834,2.835l0,0v85.039c0,1.563-1.269,2.835-2.834,2.835l0,0H0.188L0.188,172.914z"/>
		
			<path shaper:cutDepth="0.0016" fill="#FFFFFF" stroke="#000000" stroke-width="0.0283" stroke-linecap="round" stroke-linejoin="round" d="
			M192.756,9.921h-22.677c-4.696,0-8.504,3.807-8.504,8.504c0,4.696,3.808,8.504,8.504,8.504l0,0h22.677
			c4.697,0,8.504-3.808,8.504-8.504S197.453,9.921,192.756,9.921z"/>
		
			<path shaper:cutDepth="0.0016" fill="#FFFFFF" stroke="#000000" stroke-width="0.0283" stroke-linecap="round" stroke-linejoin="round" d="
			M133.228,18.425c0,4.696,3.808,8.504,8.504,8.504s8.504-3.808,8.504-8.504c0-4.697-3.81-8.504-8.504-8.504
			S133.228,13.729,133.228,18.425z"/>
		
			<path shaper:cutDepth="0.0016" fill="#FFFFFF" stroke="#000000" stroke-width="0.0283" stroke-linecap="round" stroke-linejoin="round" d="
			M90.709,26.929h22.677c4.697,0,8.504-3.808,8.504-8.504c0-4.697-3.807-8.504-8.504-8.504l0,0H90.709
			c-4.696,0-8.504,3.807-8.504,8.504S86.012,26.929,90.709,26.929z"/>
	</g>
</g>
<g id="Vorderseite" display="none">
	<g id="Leiterbahnen_Front" display="inline">
		<polyline fill="none" stroke="#B76930" stroke-width="2" stroke-miterlimit="10" points="0,194.041 2.982,194.019 13.607,205.461 
			37.14,205.303 40.112,208.381 		"/>
		<polyline fill="none" stroke="#B76930" stroke-miterlimit="10" points="214.396,36.048 223.021,36.124 226.801,39.969 
			242.486,40.107 		"/>
		<polyline fill="none" stroke="#B76930" stroke-width="2" stroke-miterlimit="10" points="284.357,36.048 270.727,36.184 
			265.744,31.287 219.174,31.302 214.984,35.564 198.469,35.709 		"/>
		<line fill="none" stroke="#B76930" stroke-miterlimit="10" x1="-0.83" y1="33.255" x2="11.661" y2="33.272"/>
		<polyline fill="none" stroke="#B76930" stroke-width="2" stroke-miterlimit="10" points="-0.83,43.799 3.903,39.308 
			24.778,39.125 30.526,33.377 41.172,33.283 		"/>
		<polyline fill="none" stroke="#B76930" stroke-miterlimit="10" points="226.564,31.351 215.041,19.972 212.275,20.068 		"/>
		<path fill="none" stroke="#B76930" stroke-miterlimit="10" d="M-6.461,194.019"/>
		<polyline fill="none" stroke="#B76930" stroke-width="2" stroke-miterlimit="10" points="-1.393,57.862 13.732,44.614 
			26.857,44.61 40.031,44.605 46.119,39.056 50.268,35.274 67.037,35.274 		"/>
		<circle fill="none" stroke="#B76930" stroke-width="2" stroke-miterlimit="10" cx="13.584" cy="33.255" r="2.281"/>
		<circle fill="#B76930" stroke="#B76930" stroke-width="2" stroke-miterlimit="10" cx="42.595" cy="33.321" r="2.281"/>
		<circle fill="#B76930" stroke="#B76930" stroke-width="2" stroke-miterlimit="10" cx="209.993" cy="20.088" r="2.281"/>
		<circle fill="#B76930" stroke="#B76930" stroke-width="2" stroke-miterlimit="10" cx="40.371" cy="208.57" r="2.281"/>
		<circle fill="none" stroke="#B76930" stroke-width="2" stroke-miterlimit="10" cx="196.527" cy="35.713" r="2.338"/>
		<circle fill="none" stroke="#B76930" stroke-width="2" stroke-miterlimit="10" cx="244.482" cy="40.118" r="2.338"/>
		<circle fill="none" stroke="#B76930" stroke-width="2" stroke-miterlimit="10" cx="72.398" cy="35.274" r="4.789"/>
		<path fill="#B76930" d="M74.859,35.252c0.012,1.354-1.082,2.469-2.439,2.479c-1.355,0.014-2.469-1.082-2.48-2.438
			c-0.012-1.355,1.082-2.468,2.437-2.48C73.734,32.803,74.847,33.897,74.859,35.252z"/>
		<circle fill="none" stroke="#B76930" stroke-width="2" stroke-miterlimit="10" cx="261.089" cy="40.572" r="4.789"/>
		<path fill="#B76930" d="M261.089,43.034c-1.356,0-2.459-1.104-2.459-2.464c0-1.354,1.103-2.459,2.459-2.459
			s2.458,1.104,2.458,2.459C263.547,41.93,262.445,43.034,261.089,43.034z"/>
		<polyline fill="none" stroke="#B76930" stroke-miterlimit="10" points="265.848,41.096 272.139,41.096 277.982,47.383 
			277.982,54.302 284.357,60.924 		"/>
		<polyline fill="none" stroke="#B76930" stroke-miterlimit="10" points="118.576,-0.763 127.293,7.862 127.293,14.604 		"/>
		<circle fill="none" stroke="#B76930" stroke-miterlimit="10" cx="127.293" cy="16.75" r="2.338"/>
		<line fill="none" stroke="#B76930" stroke-miterlimit="10" x1="70.405" y1="15.665" x2="77.451" y2="22.712"/>
		<circle fill="#B76930" stroke="#B76930" stroke-miterlimit="10" cx="78.496" cy="23.774" r="1.755"/>
		<line fill="none" stroke="#B76930" stroke-miterlimit="10" x1="57.42" y1="15.665" x2="70.712" y2="15.665"/>
		<path fill="none" stroke="#B76930" stroke-width="2" stroke-miterlimit="10" d="M163.557,37.051c0-2.646,2.146-4.789,4.789-4.789
			c2.646,0,4.789,2.144,4.789,4.789c0,2.645-2.144,4.789-4.789,4.789C165.701,41.84,163.557,39.695,163.557,37.051"/>
		<path fill="#B76930" d="M165.887,37.051c0-1.354,1.104-2.459,2.459-2.459c1.356,0,2.459,1.104,2.459,2.459
			c0,1.357-1.103,2.462-2.459,2.462C166.99,39.513,165.887,38.408,165.887,37.051"/>
		<circle fill="#B76930" stroke="#B76930" stroke-width="2" stroke-miterlimit="10" cx="111.471" cy="37.078" r="2.281"/>
		<circle fill="none" stroke="#B76930" stroke-width="2" stroke-miterlimit="10" cx="132.546" cy="37.078" r="2.338"/>
		<polyline fill="none" stroke="#B76930" stroke-width="2" stroke-miterlimit="10" points="111.471,37.078 120.504,30.966 
			148.814,30.966 156.148,25.529 156.148,0 		"/>
		<line fill="none" stroke="#B76930" stroke-width="2" stroke-miterlimit="10" x1="165.198" y1="33.447" x2="156.148" y2="25.529"/>
		<polyline fill="none" stroke="#B76930" stroke-miterlimit="10" points="134.885,37.058 142.587,37.078 148.782,31.062 		"/>
		<polyline fill="none" stroke="#B76930" stroke-miterlimit="10" points="0.087,201.581 2.888,201.581 10.998,209.69 26.326,209.69 
			29.256,212.62 		"/>
		<circle fill="none" stroke="#B76930" stroke-width="2" stroke-miterlimit="10" cx="274.962" cy="205.306" r="4.789"/>
		<path fill="#B76930" d="M277.422,205.285c0.014,1.354-1.081,2.468-2.438,2.479c-1.355,0.012-2.471-1.082-2.481-2.438
			c-0.011-1.356,1.082-2.471,2.438-2.48C276.297,202.835,277.41,203.929,277.422,205.285z"/>
		<polyline fill="none" stroke="#B76930" stroke-width="2" stroke-miterlimit="10" points="276.889,200.92 279.751,196.549 
			279.751,172.914 		"/>
		<circle fill="#B76930" stroke="#B76930" stroke-width="2" stroke-miterlimit="10" cx="70.712" cy="207.1" r="2.281"/>
		<circle fill="none" stroke="#B76930" stroke-width="2" stroke-miterlimit="10" cx="228.441" cy="206.289" r="2.281"/>
		<polyline fill="none" stroke="#B76930" stroke-width="2" stroke-miterlimit="10" points="70.712,207.1 79.107,207.1 
			85.524,213.924 		"/>
		
			<line fill="none" stroke="#B76930" stroke-width="2" stroke-miterlimit="10" x1="228.462" y1="208.57" x2="228.441" y2="212.598"/>
		<polyline fill="none" stroke="#B76930" stroke-width="2" stroke-miterlimit="10" points="109.607,213.924 120.566,206.289 
			192.732,206.289 204.107,213.549 		"/>
		
			<line fill="none" stroke="#B76930" stroke-width="2" stroke-miterlimit="10" x1="99.566" y1="213.924" x2="106.066" y2="207.765"/>
		<circle fill="#B76930" stroke="#B76930" stroke-width="2" stroke-miterlimit="10" cx="107.046" cy="206.414" r="2.281"/>
		
			<line fill="none" stroke="#B76930" stroke-width="2" stroke-miterlimit="10" x1="230.723" y1="206.269" x2="246.607" y2="206.269"/>
		<circle fill="#B76930" stroke="#B76930" stroke-width="2" stroke-miterlimit="10" cx="248.889" cy="206.269" r="2.281"/>
		
			<line fill="none" stroke="#B76930" stroke-width="2" stroke-miterlimit="10" x1="251.607" y1="206.289" x2="262.42" y2="213.299"/>
		<circle fill="none" stroke="#B76930" stroke-width="2" stroke-miterlimit="10" cx="91.735" cy="204.819" r="2.281"/>
		<line fill="none" stroke="#B76930" stroke-width="2" stroke-miterlimit="10" x1="91.755" y1="207.1" x2="91.735" y2="212.598"/>
	</g>
	<g id="Campuswoche" display="inline">
		<g>
			<path fill="#B76931" d="M33.611,59.926c-4.004,0-5.995-1.227-5.995-3.657v-3.912c0-2.454,1.991-3.68,5.995-3.68h8.009
				c0.787,0,1.204,0.324,1.204,0.949s-0.417,0.949-1.204,0.949h-8.102c-2.269,0-3.426,0.577-3.426,1.759v3.958
				c0,1.158,1.158,1.759,3.426,1.759h8.102c0.787,0,1.204,0.301,1.204,0.926s-0.417,0.949-1.204,0.949H33.611z"/>
			<path fill="#B76931" stroke="#B76931" stroke-width="0.7" stroke-miterlimit="10" d="M55.877,56.874
				c-2.917,0-4.375-0.707-4.375-2.121v-1.174c0-1.369,1.389-2.046,4.144-2.046h2.708c0.602,0,0.879,0.148,0.879,0.449v3.897h0.556
				c1.62,0,2.454-0.392,2.454-1.159v-4.017c0-0.692-0.833-1.038-2.454-1.038h-8.796c-1.504,0-2.245,0.346-2.245,1.038v6.966
				c0,0.768,0.833,1.144,2.477,1.144h1.898c0.602,0,0.903,0.183,0.903,0.514s-0.301,0.497-0.903,0.497H51.04
				c-2.801,0-4.213-0.708-4.213-2.122V50.69c0-1.354,1.389-2.029,4.144-2.029h8.819c2.894,0,4.375,0.677,4.375,2.029v4.063
				c0,1.414-1.458,2.121-4.375,2.121H55.877L55.877,56.874z M55.946,55.881h1.389v-3.265c0-0.047-0.07-0.075-0.186-0.075h-1.435
				c-1.528,0-2.292,0.346-2.292,1.053v1.144C53.423,55.49,54.257,55.881,55.946,55.881z"/>
			<path fill="#B76931" d="M88.096,52.264c0-1.134-0.926-1.688-2.778-1.688h-1.667c-1.921,0-2.871,0.556-2.871,1.688v6.805
				c0,0.648-0.393,0.974-1.204,0.974c-0.81,0-1.227-0.324-1.227-0.974v-6.805c0-1.134-0.926-1.688-2.847-1.688h-1.667
				c-1.829,0-2.755,0.556-2.755,1.688v6.805c0,0.648-0.417,0.974-1.227,0.974s-1.227-0.324-1.227-0.974v-6.805
				c0-2.384,1.759-3.588,5.278-3.588h1.689c1.736,0,3.079,0.463,3.981,1.342c0.926-0.879,2.246-1.342,3.981-1.342h1.69
				c3.542,0,5.301,1.204,5.301,3.588v6.805c0,0.648-0.417,0.974-1.227,0.974s-1.227-0.324-1.227-0.974v-6.805H88.096z"/>
			<path fill="#B76931" d="M97.328,59.926v3.056c0,0.648-0.417,0.974-1.227,0.974s-1.227-0.324-1.227-0.974V52.356
				c0-2.454,1.991-3.68,5.972-3.68h4.652c3.981,0,5.972,1.227,5.972,3.68v3.912c0,2.432-1.99,3.657-5.972,3.657L97.328,59.926
				L97.328,59.926z M97.328,58.051h8.24c2.292,0,3.426-0.602,3.426-1.759v-3.958c0-1.183-1.134-1.759-3.426-1.759h-4.814
				c-2.268,0-3.426,0.577-3.426,1.759V58.051z"/>
			<path fill="#B76931" d="M121.746,59.926c-3.981,0-5.972-1.227-5.972-3.657v-6.734c0-0.625,0.394-0.974,1.227-0.974
				c0.81,0,1.227,0.349,1.227,0.974v6.759c0,1.158,1.158,1.759,3.426,1.759h4.398c2.292,0,3.426-0.602,3.426-1.759v-6.759
				c0-0.625,0.417-0.974,1.227-0.974c0.833,0,1.25,0.349,1.25,0.974v6.734c0,2.432-2.014,3.657-5.972,3.657H121.746z"/>
			<path fill="#B76931" d="M151.234,57.333c0,1.734-1.76,2.592-5.278,2.592h-9.027c-0.74,0-1.157-0.301-1.157-0.903
				c0-0.602,0.417-0.901,1.157-0.901h9.027c1.897,0,2.849-0.278,2.849-0.787v-1.296c0-0.533-0.949-0.787-2.849-0.787h-4.768
				c-3.541,0-5.277-0.833-5.277-2.523V51.64c0-1.968,1.806-2.963,5.439-2.963h3.171c0.764,0,1.181,0.324,1.181,0.926
				c0,0.604-0.44,0.903-1.181,0.903h-3.171c-2.014,0-3.032,0.37-3.032,1.134v1.02c0,0.625,1.019,0.947,3.01,0.947h4.768
				c3.426,0,5.139,0.787,5.139,2.361V57.333L151.234,57.333z"/>
			<path fill="#B76931" d="M164.773,49.301l4.097,7.662l3.889-7.708c0.209-0.396,0.511-0.694,1.181-0.694
				c0.742,0,1.229,0.37,1.229,0.949c0,0.208-0.047,0.347-0.162,0.579l-4.885,9.188c-0.276,0.511-0.578,0.766-1.228,0.766
				c-0.58,0-0.927-0.208-1.205-0.741l-4.143-7.569l-4.121,7.569c-0.301,0.532-0.625,0.741-1.203,0.741
				c-0.671,0-0.973-0.254-1.227-0.766l-4.907-9.188c-0.116-0.231-0.14-0.37-0.14-0.579c0-0.579,0.486-0.949,1.228-0.949
				c0.647,0,0.995,0.277,1.203,0.694l3.843,7.685l4.098-7.639c0.256-0.486,0.604-0.741,1.229-0.741S164.518,48.815,164.773,49.301z"
				/>
			<path fill="#B76931" d="M184.516,59.926c-4.006,0-5.996-1.227-5.996-3.657v-3.912c0-2.454,1.99-3.68,5.996-3.68h4.467
				c4.004,0,5.996,1.227,5.996,3.68v3.912c0,2.432-1.992,3.657-5.996,3.657H184.516z M192.502,52.333
				c0-1.183-1.156-1.759-3.449-1.759h-4.63c-2.269,0-3.426,0.577-3.426,1.759v3.958c0,1.158,1.157,1.759,3.426,1.759h4.63
				c2.293,0,3.449-0.603,3.449-1.759V52.333z"/>
			<path fill="#B76931" d="M205.184,59.926c-4.006,0-5.996-1.227-5.996-3.657v-3.912c0-2.454,1.99-3.68,5.996-3.68h8.008
				c0.787,0,1.205,0.324,1.205,0.949s-0.418,0.949-1.205,0.949h-8.102c-2.27,0-3.426,0.577-3.426,1.759v3.958
				c0,1.158,1.156,1.759,3.426,1.759h8.102c0.787,0,1.205,0.301,1.205,0.926s-0.418,0.949-1.205,0.949H205.184z"/>
			<path fill="#B76931" d="M232.448,52.31c0-1.157-1.11-1.734-3.265-1.734h-8.4v8.493c0,0.648-0.418,0.974-1.227,0.974
				c-0.813,0-1.229-0.324-1.229-0.974V44.44c0-0.625,0.416-0.972,1.229-0.972c0.809,0,1.227,0.347,1.227,0.972v4.236h8.17
				c3.98,0,5.973,1.227,5.973,3.68v6.713c0,0.648-0.417,0.974-1.228,0.974c-0.833,0-1.25-0.324-1.25-0.974V52.31L232.448,52.31z"/>
			<path fill="#B76931" d="M241.611,55.065v1.412c0,1.088,1.063,1.646,3.219,1.646h3.426c0.764,0,1.157,0.301,1.157,0.901
				c0,0.604-0.394,0.903-1.157,0.903h-3.426c-3.75,0-5.648-1.134-5.648-3.426v-4.537c0-2.176,1.689-3.287,5.047-3.287h6.688
				c3.287,0,4.931,0.995,4.931,2.963v2.592c0,0.558-0.369,0.833-1.063,0.833H241.611z M241.611,53.468h11.621
				c0.139,0,0.185-0.07,0.185-0.162v-1.204c0-1.063-0.879-1.597-2.685-1.597h-6.366c-1.853,0-2.755,0.532-2.755,1.597V53.468z"/>
		</g>
	</g>
	<g id="Name" display="inline">
		<text transform="matrix(1 0 0 1 21.9326 186.8215)" fill="#B76931" font-family="'OriginTechDemoRegular'" font-size="22">Christopher Kampa</text>
		<text transform="matrix(1 0 0 1 20.9756 132.1292)" fill="#B76931" font-family="'OriginTechDemoRegular'" font-size="22">Master of Disaster</text>
		
			<line fill="none" stroke="#B76931" stroke-width="4" stroke-miterlimit="10" x1="12.756" y1="103.549" x2="270.709" y2="103.549"/>
		
			<line fill="none" stroke="#B76931" stroke-width="4" stroke-miterlimit="10" x1="12.738" y1="144.549" x2="270.691" y2="144.549"/>
	</g>
	<g id="Kupferrahmen_2_" display="inline">
		<path fill="#B76931" d="M262.645,51.499h-2.6l0.063,4.34l2.537,0.002c4.438,0,8.047,3.364,8.047,7.5v125.333
			c0,4.136-3.609,7.499-8.047,7.499H20.784c-4.437,0-8.047-3.363-8.047-7.499V63.342c0-4.136,3.61-7.5,8.047-7.5l2.719-0.002
			l-0.021-4.341L20.784,51.5c-6.792,0-12.298,5.302-12.298,11.843v125.333c0,6.539,5.506,11.842,12.298,11.842h241.86
			c6.793,0,12.299-5.303,12.299-11.842V63.342C274.943,56.801,269.438,51.499,262.645,51.499z"/>
	</g>
</g>
<g id="Rückseite">
	<g id="Raster">
		<line fill="#B76931" stroke="#B76931" stroke-miterlimit="10" x1="63.751" y1="77.783" x2="63.751" y2="196.274"/>
		<line fill="none" stroke="#B76931" stroke-miterlimit="10" x1="114.775" y1="60.829" x2="114.775" y2="196.274"/>
		<line fill="none" stroke="#B76931" stroke-miterlimit="10" x1="165.799" y1="60.828" x2="165.799" y2="196.275"/>
		<line fill="none" stroke="#B76931" stroke-miterlimit="10" x1="216.822" y1="60.828" x2="216.822" y2="196.275"/>
		<line fill="none" stroke="#B76931" stroke-miterlimit="10" x1="12.732" y1="179.15" x2="270.709" y2="179.15"/>
		<line fill="none" stroke="#B76931" stroke-miterlimit="10" x1="12.732" y1="162.255" x2="270.709" y2="162.255"/>
		<line fill="none" stroke="#B76931" stroke-miterlimit="10" x1="270.709" y1="145.361" x2="12.732" y2="145.361"/>
		<line fill="none" stroke="#B76931" stroke-miterlimit="10" x1="12.732" y1="128.466" x2="270.709" y2="128.466"/>
		<line fill="none" stroke="#B76931" stroke-miterlimit="10" x1="270.709" y1="111.572" x2="12.732" y2="111.572"/>
		<line fill="none" stroke="#B76931" stroke-miterlimit="10" x1="12.732" y1="94.677" x2="270.709" y2="94.677"/>
		<line fill="none" stroke="#B76931" stroke-miterlimit="10" x1="270.709" y1="77.783" x2="12.732" y2="77.783"/>
	</g>
	<g id="Jahre">
		<text transform="matrix(1 0 0 1 125.2324 73.0491)" fill="#B76931" font-family="'OriginTechDemoRegular'" font-size="12">2007</text>
		<text transform="matrix(1 0 0 1 174.9824 73.0491)" fill="#B76931" font-family="'OriginTechDemoRegular'" font-size="12">2008</text>
		<text transform="matrix(1 0 0 1 228.2324 73.0491)" fill="#B76931" font-family="'OriginTechDemoRegular'" font-size="12">2009</text>
		<text transform="matrix(1 0 0 1 125.2324 90.2991)" fill="#B76931" font-family="'OriginTechDemoRegular'" font-size="12">2012</text>
		<text transform="matrix(1 0 0 1 174.9824 90.2991)" fill="#B76931" font-family="'OriginTechDemoRegular'" font-size="12">2013</text>
		<text transform="matrix(1 0 0 1 228.2324 90.2991)" fill="#B76931" font-family="'OriginTechDemoRegular'" font-size="12">2014</text>
		<text transform="matrix(1 0 0 1 23.2324 90.2991)" fill="#B76931" font-family="'OriginTechDemoRegular'" font-size="12">2010</text>
		<text transform="matrix(1 0 0 1 74.2324 90.2991)" fill="#B76931" font-family="'OriginTechDemoRegular'" font-size="12">2011</text>
		<text transform="matrix(1 0 0 1 124.7324 107.2991)" fill="#B76931" font-family="'OriginTechDemoRegular'" font-size="12">2017</text>
		<text transform="matrix(1 0 0 1 174.4824 107.2991)" fill="#B76931" font-family="'OriginTechDemoRegular'" font-size="12">2018</text>
		<text transform="matrix(1 0 0 1 227.7324 107.2991)" fill="#B76931" font-family="'OriginTechDemoRegular'" font-size="12">2019</text>
		<text transform="matrix(1 0 0 1 22.7324 107.2991)" fill="#B76931" font-family="'OriginTechDemoRegular'" font-size="12">2015</text>
		<text transform="matrix(1 0 0 1 73.7324 107.2991)" fill="#B76931" font-family="'OriginTechDemoRegular'" font-size="12">2016</text>
		<text transform="matrix(1 0 0 1 125.7324 124.0491)" fill="#B76931" font-family="'OriginTechDemoRegular'" font-size="12">2022</text>
		<text transform="matrix(1 0 0 1 175.4824 124.0491)" fill="#B76931" font-family="'OriginTechDemoRegular'" font-size="12">2023</text>
		<text transform="matrix(1 0 0 1 228.7324 124.0491)" fill="#B76931" font-family="'OriginTechDemoRegular'" font-size="12">2024</text>
		<text transform="matrix(1 0 0 1 23.7324 124.0491)" fill="#B76931" font-family="'OriginTechDemoRegular'" font-size="12">2020</text>
		<text transform="matrix(1 0 0 1 74.7324 124.0491)" fill="#B76931" font-family="'OriginTechDemoRegular'" font-size="12">2021</text>
		<text transform="matrix(1 0 0 1 125.2324 141.0491)" fill="#B76931" font-family="'OriginTechDemoRegular'" font-size="12">2027</text>
		<text transform="matrix(1 0 0 1 174.9824 141.0491)" fill="#B76931" font-family="'OriginTechDemoRegular'" font-size="12">2028</text>
		<text transform="matrix(1 0 0 1 228.2324 141.0491)" fill="#B76931" font-family="'OriginTechDemoRegular'" font-size="12">2029</text>
		<text transform="matrix(1 0 0 1 23.2324 141.0491)" fill="#B76931" font-family="'OriginTechDemoRegular'" font-size="12">2025</text>
		<text transform="matrix(1 0 0 1 74.2324 141.0491)" fill="#B76931" font-family="'OriginTechDemoRegular'" font-size="12">2026</text>
		<text transform="matrix(1 0 0 1 126.2324 157.2991)" fill="#B76931" font-family="'OriginTechDemoRegular'" font-size="12">2032</text>
		<text transform="matrix(1 0 0 1 175.9824 157.2991)" fill="#B76931" font-family="'OriginTechDemoRegular'" font-size="12">2033</text>
		<text transform="matrix(1 0 0 1 229.2324 157.2991)" fill="#B76931" font-family="'OriginTechDemoRegular'" font-size="12">2034</text>
		<text transform="matrix(1 0 0 1 24.2324 157.2991)" fill="#B76931" font-family="'OriginTechDemoRegular'" font-size="12">2030</text>
		<text transform="matrix(1 0 0 1 75.2324 157.2991)" fill="#B76931" font-family="'OriginTechDemoRegular'" font-size="12">2031</text>
		<text transform="matrix(1 0 0 1 125.7324 174.2991)" fill="#B76931" font-family="'OriginTechDemoRegular'" font-size="12">2037</text>
		<text transform="matrix(1 0 0 1 175.4824 174.2991)" fill="#B76931" font-family="'OriginTechDemoRegular'" font-size="12">2038</text>
		<text transform="matrix(1 0 0 1 228.7324 174.2991)" fill="#B76931" font-family="'OriginTechDemoRegular'" font-size="12">2039</text>
		<text transform="matrix(1 0 0 1 23.7324 174.2991)" fill="#B76931" font-family="'OriginTechDemoRegular'" font-size="12">2035</text>
		<text transform="matrix(1 0 0 1 74.7324 174.2991)" fill="#B76931" font-family="'OriginTechDemoRegular'" font-size="12">2036</text>
		<text transform="matrix(1 0 0 1 125.7324 191.2991)" fill="#B76931" font-family="'OriginTechDemoRegular'" font-size="12">2042</text>
		<text transform="matrix(1 0 0 1 175.4824 191.2991)" fill="#B76931" font-family="'OriginTechDemoRegular'" font-size="12">2043</text>
		<text transform="matrix(1 0 0 1 228.7324 191.2991)" fill="#B76931" font-family="'OriginTechDemoRegular'" font-size="12">2044</text>
		<text transform="matrix(1 0 0 1 23.7324 191.2991)" fill="#B76931" font-family="'OriginTechDemoRegular'" font-size="12">2040</text>
		<text transform="matrix(1 0 0 1 74.7324 191.2991)" fill="#B76931" font-family="'OriginTechDemoRegular'" font-size="12">2041</text>
		<text transform="matrix(1 0 0 1 18.4824 73.0491)" fill="#B76931" font-family="'OriginTechDemoRegular'" font-size="12">SUMMERCAMP</text>
	</g>
	<g id="Leiterbahnen">
		<polyline fill="none" stroke="#B76930" stroke-width="2" stroke-miterlimit="10" points="175.797,204.469 156.964,204.634 
			150.065,210.159 103.032,210.297 99.602,206.849 87.894,206.952 		"/>
		<circle fill="none" stroke="#B76930" stroke-width="2" stroke-miterlimit="10" cx="85.556" cy="206.973" r="2.338"/>
		<line fill="none" stroke="#B76930" stroke-width="2" stroke-miterlimit="10" x1="274.006" y1="28.347" x2="274.006" y2="41.704"/>
		<polyline fill="none" stroke="#B76930" stroke-miterlimit="10" points="170.027,-1.365 155.802,12.861 155.802,27.098 		"/>
		<line fill="none" stroke="#B76930" stroke-miterlimit="10" x1="241.206" y1="26.94" x2="229.892" y2="38.256"/>
		<line fill="none" stroke="#B76930" stroke-width="2" stroke-miterlimit="10" x1="260.934" y1="28.347" x2="260.934" y2="36.871"/>
		<line fill="none" stroke="#B76930" stroke-width="2" stroke-miterlimit="10" x1="218.629" y1="11.008" x2="218.629" y2="24.735"/>
		<polyline fill="none" stroke="#B76930" stroke-miterlimit="10" points="208.399,4.633 208.399,30.402 198.427,40.375 		"/>
		<circle fill="none" stroke="#B76930" stroke-width="2" stroke-miterlimit="10" cx="196.793" cy="41.915" r="2.338"/>
		<circle fill="none" stroke="#B76930" stroke-width="2" stroke-miterlimit="10" cx="260.934" cy="38.823" r="2.338"/>
		<circle fill="none" stroke="#B76930" stroke-width="2" stroke-miterlimit="10" cx="218.629" cy="26.478" r="2.281"/>
		<circle fill="#B76930" cx="228.89" cy="39.697" r="2.281"/>
		<circle fill="none" stroke="#B76930" stroke-width="2" stroke-miterlimit="10" cx="228.89" cy="39.697" r="2.281"/>
		<circle fill="#B76930" cx="155.802" cy="29.379" r="2.281"/>
		<circle fill="none" stroke="#B76930" stroke-width="2" stroke-miterlimit="10" cx="155.802" cy="29.379" r="2.281"/>
		<circle fill="none" stroke="#B76930" stroke-width="2" stroke-miterlimit="10" cx="274.112" cy="46.221" r="4.789"/>
		<path fill="#B76930" d="M274.112,43.76c1.356,0,2.459,1.104,2.459,2.462c0,1.354-1.103,2.459-2.459,2.459
			s-2.458-1.104-2.458-2.459C271.654,44.864,272.756,43.76,274.112,43.76z"/>
		<polyline fill="none" stroke="#B76930" stroke-miterlimit="10" points="70.416,7.646 76.785,14.014 76.785,25.594 		"/>
		<line fill="none" stroke="#B76930" stroke-miterlimit="10" x1="27.991" y1="28.345" x2="27.991" y2="42.441"/>
		<polyline fill="none" stroke="#B76930" stroke-miterlimit="10" points="39.325,28.345 39.325,34.184 50.895,45.752 		"/>
		<polyline fill="none" stroke="#B76930" stroke-miterlimit="10" points="63.865,10.339 66.125,12.914 66.125,22.985 		"/>
		<polyline fill="none" stroke="#B76930" stroke-miterlimit="10" points="14.024,26.848 16.794,29.618 16.794,36.45 		"/>
		<line fill="none" stroke="#B76930" stroke-width="2" stroke-miterlimit="10" x1="51.648" y1="25.563" x2="57.501" y2="32.365"/>
		<polyline fill="none" stroke="#B76930" stroke-width="2" stroke-miterlimit="10" points="2.613,28.662 7.552,33.6 7.552,39.441 		
			"/>
		<polyline fill="none" stroke="#B76930" stroke-width="2" stroke-miterlimit="10" points="112.868,-1.222 127.391,10.204 
			127.391,35.961 		"/>
		<circle fill="#B76930" cx="16.794" cy="37.956" r="1.755"/>
		<circle fill="none" stroke="#B76930" stroke-miterlimit="10" cx="16.794" cy="37.956" r="1.755"/>
		<circle fill="none" stroke="#B76930" stroke-miterlimit="10" cx="7.552" cy="43.318" r="4.203"/>
		<circle fill="#B76930" cx="7.552" cy="43.318" r="2.294"/>
		<circle fill="#B76930" cx="50.669" cy="45.752" r="1.755"/>
		<circle fill="none" stroke="#B76930" stroke-miterlimit="10" cx="50.669" cy="45.752" r="1.755"/>
		<circle fill="#B76930" cx="66.125" cy="24.505" r="1.755"/>
		<circle fill="none" stroke="#B76930" stroke-miterlimit="10" cx="66.125" cy="24.505" r="1.755"/>
		<circle fill="none" stroke="#B76930" stroke-miterlimit="10" cx="27.991" cy="44.596" r="2.338"/>
		<circle fill="none" stroke="#B76930" stroke-miterlimit="10" cx="76.785" cy="27.71" r="2.338"/>
		<circle fill="none" stroke="#B76930" stroke-miterlimit="10" cx="144.07" cy="39.711" r="2.338"/>
		<circle fill="none" stroke="#B76930" stroke-miterlimit="10" cx="60.167" cy="35.133" r="4.203"/>
		<circle fill="#B76930" cx="60.167" cy="35.133" r="2.294"/>
		<circle fill="none" stroke="#B76930" stroke-miterlimit="10" cx="127.315" cy="39.794" r="4.203"/>
		<path fill="#B76930" d="M127.315,42.089c-1.265,0-2.292-1.03-2.292-2.296c0-1.263,1.028-2.292,2.292-2.292
			s2.292,1.029,2.292,2.292C129.608,41.059,128.581,42.089,127.315,42.089z"/>
		<circle fill="none" stroke="#B76930" stroke-miterlimit="10" cx="65.862" cy="207.223" r="4.203"/>
		<circle fill="#B76930" cx="65.862" cy="207.223" r="2.294"/>
		<circle fill="#B76930" cx="99.787" cy="36.872" r="1.755"/>
		<circle fill="none" stroke="#B76930" stroke-miterlimit="10" cx="99.787" cy="36.872" r="1.755"/>
		<polyline fill="none" stroke="#B76930" stroke-miterlimit="10" points="100.979,35.591 104.073,32.497 127.315,32.497 		"/>
		<polyline fill="none" stroke="#B76930" stroke-miterlimit="10" points="144.07,37.373 144.058,31.911 155.802,20.133 		"/>
		<line fill="none" stroke="#B76930" stroke-miterlimit="10" x1="-1.172" y1="182.412" x2="2.159" y2="185.78"/>
		<circle fill="none" stroke="#B76930" stroke-miterlimit="10" cx="3.647" cy="187.284" r="2.339"/>
		<polyline fill="none" stroke="#B76930" stroke-miterlimit="10" points="266.333,208.305 276.086,198.658 283.465,198.658 		"/>
		<polyline fill="none" stroke="#B76930" stroke-miterlimit="10" points="251.045,213.049 257.229,208.256 271.452,208.256 		"/>
		<polyline fill="none" stroke="#B76930" stroke-miterlimit="10" points="246.219,212.721 246.219,209.424 244.574,207.762 		"/>
		<circle fill="#B76930" cx="243.544" cy="206.721" r="1.755"/>
		<circle fill="none" stroke="#B76930" stroke-miterlimit="10" cx="243.544" cy="206.721" r="1.755"/>
		<circle fill="none" stroke="#B76930" stroke-miterlimit="10" cx="273.633" cy="208.256" r="2.339"/>
		<circle fill="#B76930" cx="177.238" cy="204.47" r="1.755"/>
		<circle fill="none" stroke="#B76930" stroke-miterlimit="10" cx="177.238" cy="204.47" r="1.755"/>
		<line fill="none" stroke="#B76930" stroke-miterlimit="10" x1="198.726" y1="212.598" x2="198.721" y2="208.051"/>
		<line fill="none" stroke="#B76930" stroke-miterlimit="10" x1="209.906" y1="212.598" x2="209.906" y2="210.674"/>
		<line fill="none" stroke="#B76930" stroke-width="2" stroke-miterlimit="10" x1="219.162" y1="212.599" x2="219.152" y2="211.1"/>
		<circle fill="#B76930" cx="209.907" cy="208.393" r="1.755"/>
		<circle fill="none" stroke="#B76930" stroke-miterlimit="10" cx="209.907" cy="208.393" r="1.755"/>
		<circle fill="none" stroke="#B76930" stroke-miterlimit="10" cx="219.162" cy="207.222" r="4.203"/>
		<path fill="#B76930" d="M219.168,204.927c1.264,0.004,2.289,1.036,2.285,2.303c-0.002,1.264-1.032,2.289-2.296,2.286
			c-1.265-0.003-2.292-1.033-2.288-2.298C216.871,205.953,217.901,204.925,219.168,204.927z"/>
		<circle fill="none" stroke="#B76930" stroke-miterlimit="10" cx="198.726" cy="205.895" r="2.338"/>
		<polyline fill="none" stroke="#B76930" stroke-miterlimit="10" points="61.66,207.223 15.482,207.383 8.232,200.518 0,200.518 		
			"/>
	</g>
	<g id="Teilnahme">
		<text transform="matrix(1 0 0 1 78.9849 59.3303)" fill="#B76931" font-family="'NeuropolXRg-Regular'" font-size="18">Teilnahme</text>
	</g>
	<g id="Kupferrahmen">
		<path fill="#B76931" d="M262.662,51.499h-54.305l0.063,4.3l54.242,0.042c4.438,0,8.047,3.364,8.047,7.5v125.333
			c0,4.136-3.609,7.499-8.047,7.499H20.802c-4.437,0-8.047-3.363-8.047-7.499V63.342c0-4.136,3.61-7.5,8.047-7.5l54.493-0.043
			l-0.063-4.3L20.802,51.5c-6.792,0-12.298,5.302-12.298,11.843v125.333c0,6.539,5.506,11.842,12.298,11.842h241.86
			c6.793,0,12.299-5.303,12.299-11.842V63.342C274.961,56.801,269.455,51.499,262.662,51.499z"/>
	</g>
</g>
</svg>
